<svg width="18" height="19" viewBox="0 0 18 19" fill="none" xmlns="http://www.w3.org/2000/svg">
<path d="M9.00018 10.1835C11.229 10.1835 13.036 8.00831 13.036 5.32512C13.036 1.60427 11.2291 0.466797 9.00018 0.466797C6.77119 0.466797 4.96436 1.60427 4.96436 5.32512C4.9644 8.00831 6.77124 10.1835 9.00018 10.1835Z" fill="#8089A6"/>
<path d="M17.912 17.3352L15.8758 12.6178C15.7827 12.4019 15.6191 12.2229 15.4155 12.1139L12.2555 10.422C12.1858 10.3848 12.1015 10.392 12.0388 10.4408C11.1451 11.1361 10.0942 11.5035 9.00004 11.5035C7.90565 11.5035 6.8549 11.1361 5.96116 10.4408C5.89834 10.392 5.81396 10.3848 5.74428 10.422L2.58455 12.1139C2.38083 12.2229 2.2174 12.4018 2.12418 12.6178L0.088054 17.3352C-0.0523243 17.6605 -0.0235536 18.0326 0.16504 18.3309C0.353546 18.6291 0.672575 18.8071 1.01848 18.8071H16.9815C17.3274 18.8071 17.6465 18.629 17.835 18.3308C18.0235 18.0326 18.0524 17.6603 17.912 17.3352Z" fill="#8089A6"/>
</svg>
