<svg width="20" height="21" viewBox="0 0 20 21" fill="none" xmlns="http://www.w3.org/2000/svg">
<path d="M3.17861 4.27646C4.26788 4.27646 5.15091 3.38232 5.15091 2.27934C5.15091 1.17637 4.26788 0.282227 3.17861 0.282227C2.08933 0.282227 1.2063 1.17637 1.2063 2.27934C1.2063 3.38232 2.08933 4.27646 3.17861 4.27646Z" fill="#8089A6" fill-opacity="0.5"/>
<path d="M0.978003 11.2748H1.1736V15.2361C1.1736 15.7809 1.61371 16.2264 2.15161 16.2264H4.20541C4.74332 16.2264 5.18342 15.7809 5.18342 15.2361V15.0052C5.00412 14.6584 4.89002 14.2624 4.89002 13.8498V8.66717C4.89002 7.66036 5.49312 6.78558 6.35702 6.40597V6.00984C6.35702 5.46517 5.91692 5.01953 5.37902 5.01953H0.978003C0.440102 5.01953 0 5.46517 0 6.00984V10.2847C0 10.8294 0.423801 11.2748 0.978003 11.2748Z" fill="#8089A6" fill-opacity="0.5"/>
<path d="M16.838 4.27646C17.9273 4.27646 18.8103 3.38232 18.8103 2.27934C18.8103 1.17637 17.9273 0.282227 16.838 0.282227C15.7488 0.282227 14.8657 1.17637 14.8657 2.27934C14.8657 3.38232 15.7488 4.27646 16.838 4.27646Z" fill="#8089A6" fill-opacity="0.5"/>
<path d="M13.6431 5.99324V6.38936C14.5071 6.76898 15.1101 7.64375 15.1101 8.65057V13.8167C15.1101 14.2293 15.0123 14.6254 14.8168 14.972V15.2031C14.8168 15.7478 15.2568 16.1934 15.7948 16.1934H17.8486C18.3865 16.1934 18.8266 15.7478 18.8266 15.2031V11.2419H19.0221C19.5601 11.2419 20.0001 10.7962 20.0001 10.2516V5.99324C20.0001 5.44857 19.5601 5.00293 19.0221 5.00293H14.6211C14.0833 5.00293 13.6431 5.4484 13.6431 5.99324Z" fill="#8089A6" fill-opacity="0.5"/>
<path d="M6.37329 8.6669V10.2844V13.8495C6.37329 14.3942 6.81339 14.8398 7.35129 14.8398H7.7262V19.5108C7.7262 20.0555 8.1663 20.5011 8.7042 20.5011H11.3285C11.8664 20.5011 12.3065 20.0555 12.3065 19.5108V14.8233H12.6814C13.2193 14.8233 13.6594 14.3779 13.6594 13.833V10.2846V8.66707C13.6594 8.1224 13.2193 7.67676 12.6814 7.67676H7.35129C6.79709 7.67659 6.37329 8.1224 6.37329 8.6669Z" fill="#8089A6" fill-opacity="0.5"/>
<path d="M10.0081 6.85114C11.2595 6.85114 12.2738 5.82398 12.2738 4.55692C12.2738 3.28985 11.2595 2.2627 10.0081 2.2627C8.75682 2.2627 7.74243 3.28985 7.74243 4.55692C7.74243 5.82398 8.75682 6.85114 10.0081 6.85114Z" fill="#8089A6" fill-opacity="0.5"/>
</svg>
