<svg width="20" height="21" viewBox="0 0 20 21" fill="none" xmlns="http://www.w3.org/2000/svg">
<path d="M3.96105 8.16466C4.36295 8.16466 4.75775 8.10092 5.1381 7.97813L7.39871 10.2656L9.8744 7.75927L7.61485 5.46929C8.05042 4.09105 7.69253 2.56387 6.67738 1.5363C5.95472 0.804337 4.99269 0.401367 3.97123 0.401367C3.4005 0.401367 2.82822 0.532327 2.31475 0.780248C2.23728 0.817624 2.18304 0.89053 2.16851 0.976012C2.15441 1.0615 2.18156 1.14826 2.24184 1.20986L4.62035 3.61887C4.79585 3.79644 4.8927 4.03221 4.8927 4.28248C4.8927 4.53338 4.79571 4.76873 4.62035 4.9463C4.27095 5.30116 3.66008 5.30116 3.31004 4.94538L0.930697 2.53701C0.869716 2.47526 0.782067 2.44819 0.700033 2.46254C0.615402 2.47725 0.543613 2.53218 0.506701 2.61063C-0.192099 4.09346 0.107407 5.8692 1.25343 7.0288C1.97651 7.76098 2.93805 8.16466 3.96105 8.16466Z" fill="#8089A6" fill-opacity="0.5"/>
<path d="M16.0401 12.6202C15.6374 12.6202 15.2419 12.6844 14.8613 12.8075L12.3609 10.2754L9.88354 12.7835L12.3846 15.316C11.95 16.6938 12.3076 18.2206 13.3221 19.2488C14.045 19.9807 15.007 20.3838 16.0284 20.3838C16.5994 20.3838 17.1716 20.2525 17.6851 20.0047C17.7626 19.9674 17.8168 19.8944 17.8313 19.8089C17.8459 19.7235 17.8183 19.6366 17.758 19.5751L15.3796 17.1656C15.2044 16.9884 15.1076 16.7531 15.1074 16.5028C15.1074 16.2521 15.2042 16.0168 15.38 15.839C15.7305 15.4839 16.34 15.4841 16.6899 15.8392L19.0687 18.2476C19.1295 18.3089 19.2143 18.3362 19.2997 18.322C19.3841 18.3071 19.4562 18.2524 19.493 18.174C20.1918 16.6913 19.8925 14.9158 18.7465 13.756C18.0236 13.0239 17.0623 12.6202 16.0401 12.6202Z" fill="#8089A6" fill-opacity="0.5"/>
<path d="M15.0224 6.90998C15.0224 6.90998 15.4362 7.27699 15.7774 7.10553C16.163 6.90906 17.2493 7.99354 17.5959 8.24729C17.5971 8.24814 17.5994 8.24814 17.6035 8.25013L17.414 8.44284C17.1638 8.69332 17.164 9.10233 17.4134 9.35323C17.663 9.60485 18.0642 9.60464 18.3138 9.35323L19.814 7.83615C20.0619 7.58389 20.0621 7.1756 19.8136 6.92377C19.566 6.67279 19.1622 6.67279 18.9137 6.92398L18.6639 7.17673C18.4568 6.88802 18.1128 6.39595 18.1565 6.23294C18.3394 5.51902 16.9021 3.83268 16.9021 3.83268C13.3325 0.218822 10.9481 0.300965 9.81384 0.695905C9.35855 0.854506 9.44297 0.954981 9.91587 1.03933C13.3572 1.64758 13.7841 3.70257 13.2008 4.49544C12.9764 4.80155 13.3036 5.17113 13.3036 5.17113L13.4266 5.29484L7.61597 11.1776C7.69477 11.2257 7.77133 11.2804 7.83884 11.349L8.81631 12.3378C8.88269 12.4052 8.93694 12.4822 8.98402 12.5619L14.7948 6.67897L15.0224 6.90998Z" fill="#8089A6" fill-opacity="0.5"/>
<path d="M7.44782 11.7447C7.23336 11.5273 6.86838 11.5133 6.63898 11.715L0.181567 17.5771C-0.0488869 17.7786 -0.0617288 18.1216 0.153146 18.3392L1.91201 20.1189C2.12702 20.3365 2.46512 20.3243 2.66393 20.0922L8.45489 13.5517C8.653 13.3196 8.64044 12.9513 8.42535 12.734L7.44782 11.7447Z" fill="#8089A6" fill-opacity="0.5"/>
</svg>
