<svg width="20" height="22" viewBox="0 0 20 22" fill="none" xmlns="http://www.w3.org/2000/svg">
<path d="M14.9792 4.91042C15.7575 4.91042 16.3879 4.27636 16.3879 3.48823V1.99829C16.3879 1.20945 15.7575 0.573242 14.9792 0.573242C14.2015 0.573242 13.5732 1.20945 13.5732 1.99829V3.48823C13.5732 4.27636 14.2015 4.91042 14.9792 4.91042Z" fill="#8089A6"/>
<path d="M19.9796 3.0393H17.1473V3.76467C17.1473 4.96005 16.1872 5.93505 15.0039 5.93505C13.8191 5.93505 12.8619 4.96005 12.8619 3.76467V3.0393H7.14447V3.76467C7.14447 4.96005 6.18441 5.93505 5.00106 5.93505C3.81771 5.93505 2.85905 4.95934 2.85905 3.76395V3.0393L1.59539e-09 3.00293V21.1206H1.42918H18.5736L20 21.1163L19.9796 3.0393ZM18.5736 19.6777H1.42918V8.10329H18.5736V19.6777Z" fill="#8089A6"/>
<path d="M4.97844 4.91042C5.75677 4.91042 6.38578 4.27636 6.38578 3.48823V1.99829C6.38578 1.20945 5.75748 0.573242 4.97844 0.573242C4.20152 0.573242 3.57251 1.20945 3.57251 1.99829V3.48823C3.57251 4.27636 4.20152 4.91042 4.97844 4.91042Z" fill="#8089A6"/>
<path d="M9.39989 9.65625H7.14941V11.6683H9.39989V9.65625Z" fill="#8089A6"/>
<path d="M5.87792 9.65625H3.62744V11.6683H5.87792V9.65625Z" fill="#8089A6"/>
<path d="M13.0428 9.65625H10.7896V11.6683H13.0428V9.65625Z" fill="#8089A6"/>
<path d="M16.416 9.65625H14.1655V11.6683H16.416V9.65625Z" fill="#8089A6"/>
<path d="M9.39989 12.998H7.14941V15.0087H9.39989V12.998Z" fill="#8089A6"/>
<path d="M13.0428 12.998H10.7896V15.0087H13.0428V12.998Z" fill="#8089A6"/>
<path d="M16.416 12.998H14.1655V15.0087H16.416V12.998Z" fill="#8089A6"/>
<path d="M9.39989 16.4062H7.14941V18.4169H9.39989V16.4062Z" fill="#8089A6"/>
<path d="M5.82158 12.998H3.57251V15.0087H5.82158V12.998Z" fill="#8089A6"/>
<path d="M5.82158 16.4062H3.57251V18.4169H5.82158V16.4062Z" fill="#8089A6"/>
<path d="M13.0428 16.4062H10.7896V18.4169H13.0428V16.4062Z" fill="#8089A6"/>
<path d="M16.416 16.4062H14.1655V18.4169H16.416V16.4062Z" fill="#8089A6"/>
</svg>
