<svg width="20" height="17" viewBox="0 0 20 17" fill="none" xmlns="http://www.w3.org/2000/svg">
<path d="M1.9196 5.48076C2.1726 5.66437 2.93522 6.20971 4.20752 7.11649C5.47985 8.02327 6.45455 8.72147 7.13164 9.21112C7.20603 9.26479 7.36408 9.38147 7.60585 9.5613C7.84767 9.74126 8.0486 9.88668 8.20848 9.9976C8.36848 10.1085 8.5619 10.2329 8.78894 10.3706C9.01591 10.5082 9.22985 10.6117 9.43074 10.6802C9.63167 10.7492 9.81766 10.7834 9.98876 10.7834H9.99998H10.0112C10.1823 10.7834 10.3684 10.7492 10.5693 10.6802C10.7702 10.6117 10.9843 10.508 11.2111 10.3706C11.4379 10.2327 11.6314 10.1084 11.7914 9.9976C11.9514 9.88668 12.1521 9.74126 12.394 9.5613C12.6358 9.3813 12.794 9.26479 12.8684 9.21112C13.5528 8.72147 15.294 7.47789 18.0915 5.48052C18.6347 5.09041 19.0884 4.61969 19.453 4.06869C19.8178 3.51792 20 2.94014 20 2.33566C20 1.83053 19.8232 1.39812 19.4697 1.03849C19.1163 0.678779 18.6977 0.499023 18.2142 0.499023H1.78564C1.21276 0.499023 0.771891 0.697957 0.463111 1.09582C0.15437 1.49377 0 1.99118 0 2.58802C0 3.07012 0.20468 3.59254 0.613846 4.15496C1.02297 4.71743 1.45837 5.1594 1.9196 5.48076Z" fill="white"/>
<path d="M18.8838 6.70857C16.4435 8.40726 14.5906 9.72742 13.3259 10.6688C12.9018 10.9901 12.5578 11.2409 12.2936 11.4206C12.0294 11.6004 11.678 11.7841 11.2389 11.9715C10.8 12.1591 10.3909 12.2527 10.0114 12.2527H10H9.9888C9.60934 12.2527 9.20006 12.1591 8.76115 11.9715C8.32224 11.7841 7.97061 11.6004 7.70647 11.4206C7.44241 11.2409 7.09826 10.9901 6.6742 10.6688C5.66968 9.91124 3.82075 8.59099 1.12734 6.70857C0.703129 6.41797 0.327387 6.08487 0 5.70996V14.8238C0 15.3292 0.174776 15.7613 0.524523 16.121C0.874192 16.4808 1.29465 16.6606 1.78575 16.6606H18.2144C18.7053 16.6606 19.1258 16.4808 19.4755 16.121C19.8253 15.7612 20 15.3292 20 14.8238V5.70996C19.68 6.07711 19.3081 6.41021 18.8838 6.70857Z" fill="white"/>
</svg>
